<svg width="14" height="14" viewBox="0 0 14 14" fill="none" xmlns="http://www.w3.org/2000/svg">
<path d="M4.66669 11C3.93335 11 3.34002 11.6 3.34002 12.3333C3.34002 13.0667 3.93335 13.6667 4.66669 13.6667C5.40002 13.6667 6.00002 13.0667 6.00002 12.3333C6.00002 11.6 5.40002 11 4.66669 11ZM0.666687 0.333328V1.66666H2.00002L4.40002 6.72666L3.50002 8.36C3.39335 8.54666 3.33335 8.76666 3.33335 9C3.33335 9.73333 3.93335 10.3333 4.66669 10.3333H12.6667V9H4.94669C4.85335 9 4.78002 8.92666 4.78002 8.83333L4.80002 8.75333L5.40002 7.66666H10.3667C10.8667 7.66666 11.3067 7.39333 11.5334 6.98L13.92 2.65333C13.9734 2.55999 14 2.44666 14 2.33333C14 1.96666 13.7 1.66666 13.3334 1.66666H3.47335L2.84669 0.333328H0.666687ZM11.3334 11C10.6 11 10.0067 11.6 10.0067 12.3333C10.0067 13.0667 10.6 13.6667 11.3334 13.6667C12.0667 13.6667 12.6667 13.0667 12.6667 12.3333C12.6667 11.6 12.0667 11 11.3334 11Z" fill="white"/>
</svg>
