<svg width="32" height="32" viewBox="0 0 32 32" fill="none" xmlns="http://www.w3.org/2000/svg">
<g clip-path="url(#clip0_302_317913)">
<path d="M20.6667 18.6667H19.6134L19.24 18.3067C20.5467 16.7867 21.3334 14.8133 21.3334 12.6667C21.3334 7.88 17.4534 4 12.6667 4C8.10671 4 4.37337 7.52 4.04004 12H6.73337C7.06671 9 9.57337 6.66667 12.6667 6.66667C15.9867 6.66667 18.6667 9.34667 18.6667 12.6667C18.6667 15.9867 15.9867 18.6667 12.6667 18.6667C12.44 18.6667 12.2267 18.6267 12 18.6V21.2933C12.2267 21.32 12.44 21.3333 12.6667 21.3333C14.8134 21.3333 16.7867 20.5467 18.3067 19.24L18.6667 19.6133V20.6667L25.3334 27.32L27.32 25.3333L20.6667 18.6667Z" fill="#DA1414"/>
<path d="M8.62672 14.4266L5.33338 17.72L2.04005 14.4266L1.09338 15.3733L4.38672 18.6666L1.09338 21.96L2.04005 22.9066L5.33338 19.6133L8.62672 22.9066L9.57338 21.96L6.28005 18.6666L9.57338 15.3733L8.62672 14.4266Z" fill="#DA1414"/>
</g>
<defs>
<clipPath id="clip0_302_317913">
<rect width="32" height="32" fill="white"/>
</clipPath>
</defs>
</svg>
